<svg width="1200" height="131" viewBox="0 0 1851 131" fill="none" xmlns="http://www.w3.org/2000/svg">
<path d="M16.8421 102V0.981467H0.246165V102H16.8421ZM53.618 102V65.922C53.618 51.2021 61.2665 42.9763 73.1001 42.9763C83.7792 42.9763 89.9847 48.6045 89.9847 60.4381V102H105.715V59.2836C105.715 41.1003 94.1697 29.5553 77.8624 29.5553C64.4414 29.5553 58.3803 35.4721 55.7827 41.1003H53.3294V30.7098H37.888V102H53.618ZM171.314 102V88.7233H156.738C153.996 88.7233 152.697 87.2802 152.697 84.3939V43.9865H173.478V30.7098H152.697V7.47552H136.823V30.7098H117.774V43.9865H136.823V87.1358C136.823 96.2275 142.595 102 151.543 102H171.314ZM220.73 104.02C240.068 104.02 248.583 93.0526 252.768 84.9712L239.635 78.3328C236.749 84.5382 231.987 90.1664 221.163 90.1664C209.763 90.1664 201.248 82.5179 200.815 70.8286H254.788V65.0561C254.788 43.2649 240.934 28.6894 220.297 28.6894C199.228 28.6894 184.797 43.2649 184.797 65.489V67.2208C184.797 89.4448 199.228 104.02 220.73 104.02ZM200.96 58.8507C202.403 48.8931 209.33 42.5434 220.153 42.5434C230.688 42.5434 237.904 48.8931 238.769 58.8507H200.96ZM287.984 102V60.4381C287.984 49.759 294.623 44.5637 304.292 44.5637H313.239V30.4212H304.725C297.365 30.4212 292.314 33.1631 290.149 39.0799H287.696V30.7098H272.254V102H287.984ZM348.307 104.02C363.171 104.02 368.222 96.3718 370.098 92.0425H372.551V92.3311C372.551 98.2479 377.314 102 384.096 102H395.497V88.8676H389.436C386.838 88.8676 385.395 87.4245 385.395 84.5382V55.9644C385.395 38.5026 373.994 28.6894 355.522 28.6894C337.195 28.6894 327.815 38.214 324.351 49.4704L339.071 54.2327C340.658 46.8727 345.421 41.6775 355.378 41.6775C365.336 41.6775 370.098 47.1614 370.098 54.9542V59.2836H348.884C333.154 59.2836 321.609 66.7878 321.609 81.3634C321.609 95.9389 333.154 104.02 348.307 104.02ZM350.904 91.0323C342.39 91.0323 337.483 86.9915 337.483 80.9304C337.483 74.725 342.39 71.4058 349.894 71.4058H370.098V72.8489C370.098 84.1053 362.161 91.0323 350.904 91.0323ZM441.303 104.02C461.651 104.02 473.196 91.7538 476.659 76.7454L461.362 73.1376C459.63 82.9508 453.713 89.8778 441.591 89.8778C429.613 89.8778 420.377 81.652 420.377 67.0765V65.6333C420.377 51.0578 429.613 42.832 441.591 42.832C453.713 42.832 459.63 50.1919 460.785 59.4279L476.226 56.253C473.34 40.9559 461.651 28.6894 441.303 28.6894C420.522 28.6894 404.647 42.2548 404.647 65.489V67.3651C404.647 90.455 420.522 104.02 441.303 104.02ZM537.449 102V88.7233H522.874C520.132 88.7233 518.833 87.2802 518.833 84.3939V43.9865H539.614V30.7098H518.833V7.47552H502.959V30.7098H483.91V43.9865H502.959V87.1358C502.959 96.2275 508.731 102 517.679 102H537.449ZM564.726 21.4738C570.787 21.4738 575.405 17.1444 575.405 10.939C575.405 4.58928 570.787 0.404218 564.726 0.404218C558.664 0.404218 554.191 4.58928 554.191 10.939C554.191 17.1444 558.664 21.4738 564.726 21.4738ZM572.663 102V30.7098H556.933V102H572.663ZM635.408 102L659.075 30.7098H642.191L624.007 90.3107H621.554L603.371 30.7098H586.63L610.298 102H635.408ZM703.133 104.02C722.471 104.02 730.986 93.0526 735.171 84.9712L722.038 78.3328C719.152 84.5382 714.39 90.1664 703.566 90.1664C692.166 90.1664 683.651 82.5179 683.218 70.8286H737.191V65.0561C737.191 43.2649 723.337 28.6894 702.7 28.6894C681.631 28.6894 667.2 43.2649 667.2 65.489V67.2208C667.2 89.4448 681.631 104.02 703.133 104.02ZM683.363 58.8507C684.806 48.8931 691.733 42.5434 702.556 42.5434C713.091 42.5434 720.306 48.8931 721.172 58.8507H683.363ZM807.026 102V12.8151H809.335L829.971 102H857.679L878.316 12.8151H880.769V102H896.788V0.981467H865.761L844.98 90.888H842.671L821.89 0.981467H790.863V102H807.026ZM950.324 104.02C969.662 104.02 978.177 93.0526 982.362 84.9712L969.229 78.3328C966.343 84.5382 961.581 90.1664 950.757 90.1664C939.357 90.1664 930.842 82.5179 930.409 70.8286H984.382V65.0561C984.382 43.2649 970.528 28.6894 949.891 28.6894C928.822 28.6894 914.391 43.2649 914.391 65.489V67.2208C914.391 89.4448 928.822 104.02 950.324 104.02ZM930.554 58.8507C931.997 48.8931 938.924 42.5434 949.747 42.5434C960.282 42.5434 967.497 48.8931 968.363 58.8507H930.554ZM1031 104.02C1044.56 104.02 1051.2 98.2479 1054.81 92.3311H1057.12V102H1072.71V0.981467H1056.83V39.9458H1054.52C1051.2 34.4619 1044.56 28.6894 1031 28.6894C1013.25 28.6894 998.385 42.2548 998.385 65.3447V67.5094C998.385 90.5993 1013.39 104.02 1031 104.02ZM1035.62 90.1664C1023.35 90.1664 1014.26 81.9406 1014.26 67.0765V65.6333C1014.26 50.7692 1023.21 42.5434 1035.62 42.5434C1048.03 42.5434 1057.12 50.7692 1057.12 65.6333V67.0765C1057.12 81.9406 1047.88 90.1664 1035.62 90.1664ZM1101.95 21.4738C1108.01 21.4738 1112.63 17.1444 1112.63 10.939C1112.63 4.58928 1108.01 0.404218 1101.95 0.404218C1095.89 0.404218 1091.42 4.58928 1091.42 10.939C1091.42 17.1444 1095.89 21.4738 1101.95 21.4738ZM1109.89 102V30.7098H1094.16V102H1109.89ZM1153.44 104.02C1168.3 104.02 1173.35 96.3718 1175.23 92.0425H1177.68V92.3311C1177.68 98.2479 1182.45 102 1189.23 102H1200.63V88.8676H1194.57C1191.97 88.8676 1190.53 87.4245 1190.53 84.5382V55.9644C1190.53 38.5026 1179.13 28.6894 1160.65 28.6894C1142.33 28.6894 1132.95 38.214 1129.48 49.4704L1144.2 54.2327C1145.79 46.8727 1150.55 41.6775 1160.51 41.6775C1170.47 41.6775 1175.23 47.1614 1175.23 54.9542V59.2836H1154.02C1138.29 59.2836 1126.74 66.7878 1126.74 81.3634C1126.74 95.9389 1138.29 104.02 1153.44 104.02ZM1156.04 91.0323C1147.52 91.0323 1142.62 86.9915 1142.62 80.9304C1142.62 74.725 1147.52 71.4058 1155.03 71.4058H1175.23V72.8489C1175.23 84.1053 1167.29 91.0323 1156.04 91.0323ZM1288.23 102C1315.22 102 1329.94 88.4347 1329.94 61.0153V41.9661C1329.94 14.5468 1315.22 0.981467 1288.23 0.981467H1247.54V15.557H1261.1V87.2802H1247.54V102H1288.23ZM1277.7 16.1342H1288.52C1305.26 16.1342 1313.34 24.793 1313.34 41.5332V61.4483C1313.34 78.1885 1305.26 86.8472 1288.52 86.8472H1277.7V16.1342ZM1380.02 104.02C1399.36 104.02 1407.87 93.0526 1412.06 84.9712L1398.92 78.3328C1396.04 84.5382 1391.28 90.1664 1380.45 90.1664C1369.05 90.1664 1360.54 82.5179 1360.1 70.8286H1414.08V65.0561C1414.08 43.2649 1400.22 28.6894 1379.59 28.6894C1358.52 28.6894 1344.09 43.2649 1344.09 65.489V67.2208C1344.09 89.4448 1358.52 104.02 1380.02 104.02ZM1360.25 58.8507C1361.69 48.8931 1368.62 42.5434 1379.44 42.5434C1389.98 42.5434 1397.19 48.8931 1398.06 58.8507H1360.25ZM1460.69 104.02C1478.59 104.02 1490.28 95.7946 1490.28 81.219C1490.28 66.6435 1477.87 62.0255 1462.14 59.1393L1457.52 58.4177C1450.02 57.1189 1445.4 54.9542 1445.4 49.4704C1445.4 44.4194 1450.02 41.3889 1457.81 41.3889C1465.75 41.3889 1471.37 44.5637 1472.96 52.7895L1487.68 48.4602C1484.51 36.4823 1473.83 28.6894 1457.81 28.6894C1441.07 28.6894 1430.1 36.4823 1430.1 50.1919C1430.1 63.7573 1441.93 69.3854 1456.51 72.1274L1461.27 72.8489C1470.36 74.5807 1474.84 76.7454 1474.84 82.0849C1474.84 87.5688 1469.93 91.3209 1460.69 91.3209C1451.6 91.3209 1443.81 87.7131 1441.93 76.3124L1427.21 79.9202C1429.67 95.7946 1442.37 104.02 1460.69 104.02ZM1515.16 21.4738C1521.22 21.4738 1525.84 17.1444 1525.84 10.939C1525.84 4.58928 1521.22 0.404218 1515.16 0.404218C1509.1 0.404218 1504.62 4.58928 1504.62 10.939C1504.62 17.1444 1509.1 21.4738 1515.16 21.4738ZM1523.09 102V30.7098H1507.36V102H1523.09ZM1541.25 66.6435C1541.25 89.0119 1556.11 102.433 1574.15 102.433C1587.86 102.433 1594.21 96.5161 1597.38 91.1766H1599.69V112.679C1599.69 115.565 1598.25 117.008 1595.51 117.008H1552.79V130.862H1600.7C1609.79 130.862 1615.42 125.09 1615.42 115.998V30.7098H1599.98V40.523H1597.67C1594.21 34.8948 1587.72 28.6894 1574.15 28.6894C1556.11 28.6894 1541.25 42.1104 1541.25 64.4788V66.6435ZM1578.48 88.579C1566.21 88.579 1557.12 80.3532 1557.12 66.2106V64.9118C1557.12 50.7692 1566.07 42.5434 1578.48 42.5434C1590.89 42.5434 1599.98 50.7692 1599.98 64.9118V66.2106C1599.98 80.3532 1590.75 88.579 1578.48 88.579ZM1652.75 102V65.922C1652.75 51.2021 1660.4 42.9763 1672.23 42.9763C1682.91 42.9763 1689.12 48.6045 1689.12 60.4381V102H1704.85V59.2836C1704.85 41.1003 1693.3 29.5553 1676.99 29.5553C1663.57 29.5553 1657.51 35.4721 1654.91 41.1003H1652.46V30.7098H1637.02V102H1652.75ZM1758.28 104.02C1777.61 104.02 1786.13 93.0526 1790.31 84.9712L1777.18 78.3328C1774.29 84.5382 1769.53 90.1664 1758.71 90.1664C1747.31 90.1664 1738.79 82.5179 1738.36 70.8286H1792.33V65.0561C1792.33 43.2649 1778.48 28.6894 1757.84 28.6894C1736.77 28.6894 1722.34 43.2649 1722.34 65.489V67.2208C1722.34 89.4448 1736.77 104.02 1758.28 104.02ZM1738.5 58.8507C1739.95 48.8931 1746.87 42.5434 1757.7 42.5434C1768.23 42.5434 1775.45 48.8931 1776.31 58.8507H1738.5ZM1825.53 102V60.4381C1825.53 49.759 1832.17 44.5637 1841.84 44.5637H1850.78V30.4212H1842.27C1834.91 30.4212 1829.86 33.1631 1827.69 39.0799H1825.24V30.7098H1809.8V102H1825.53Z" fill= "currentColor"/>
</svg>
